/* XPM */
static char *d17ceba90f5c4cbaaebcaebfd02a8c3fK20V4ckx3sLN8Qlp[] = {
/* columns rows colors chars-per-pixel */
"16 16 138 2 ",
"   c None",
".  c #63571E",
"X  c #6E6123",
"o  c #7C6E29",
"O  c #7D6E29",
"+  c #8D7E31",
"@  c #8E7E31",
"#  c #938233",
"$  c #928334",
"%  c #938334",
"&  c #978736",
"*  c #9A8936",
"=  c #9A8937",
"-  c #9C8B38",
";  c #9D8D39",
":  c #9D8E3A",
">  c #B8972D",
",  c #B9982E",
"<  c #A99539",
"1  c #AB963B",
"2  c #AD983C",
"3  c #AE993D",
"4  c #AE9B3F",
"5  c #BE9D31",
"6  c #BF9E32",
"7  c #C09F32",
"8  c #C1A033",
"9  c #CDAC3A",
"0  c #CDAC3B",
"q  c #D0AF3D",
"w  c #BAA745",
"e  c #C1AC47",
"r  c #C4AF49",
"t  c #C9B046",
"y  c #C9B248",
"u  c #CDB64A",
"i  c #CBB64C",
"p  c #CDB84E",
"a  c #D9B843",
"s  c #DAB943",
"d  c #CEBF54",
"f  c #D7C051",
"g  c #DAC150",
"h  c #E1C148",
"j  c #E2C148",
"k  c #E3C34A",
"l  c #E4C44A",
"z  c #E9C94D",
"x  c #EACA4E",
"c  c #ECCB4F",
"v  c #ECCC4F",
"b  c #EDCD4F",
"n  c #E0CA56",
"m  c #E1CA57",
"M  c #E4CC57",
"N  c #EDCD50",
"B  c #EFCD50",
"V  c #EFCE50",
"C  c #EECE51",
"Z  c #EFCE51",
"A  c #EFCF51",
"S  c #EFCF52",
"D  c #E4CE5B",
"F  c #E9D35E",
"G  c #EBD45C",
"H  c #EED85F",
"J  c #F0D052",
"K  c #F1D153",
"L  c #F1D154",
"P  c #F1D254",
"I  c #F1D354",
"U  c #F1D255",
"Y  c #F2D254",
"T  c #F2D355",
"R  c #F3D355",
"E  c #F2D356",
"W  c #F3D455",
"Q  c #F3D456",
"!  c #F3D557",
"~  c #F3D657",
"^  c #F4D455",
"/  c #F4D456",
"(  c #F4D557",
")  c #F4D657",
"_  c #F5D657",
"`  c #F2D558",
"'  c #F3D658",
"]  c #F4D658",
"[  c #F4D759",
"{  c #F5D859",
"}  c #F7D858",
"|  c #F4D85A",
" . c #F5D95A",
".. c #F5D95B",
"X. c #F6D95A",
"o. c #F5DA5B",
"O. c #F7DA5A",
"+. c #F6DA5B",
"@. c #F7DA5B",
"#. c #F1D95E",
"$. c #F5DA5C",
"%. c #F6DA5C",
"&. c #F6DB5D",
"*. c #F7DC5D",
"=. c #F7DC5E",
"-. c #F9DB59",
";. c #FADA59",
":. c #F9DB5A",
">. c #F8DB5B",
",. c #FBDD5B",
"<. c #FCDD5B",
"1. c #F9DD5E",
"2. c #F8DE5F",
"3. c #F9DE5F",
"4. c #FBDF5F",
"5. c #FCE05F",
"6. c #EFDB61",
"7. c #F5DC60",
"8. c #F8DF60",
"9. c #F9DF61",
"0. c #F7E063",
"q. c #FAE162",
"w. c #FAE263",
"e. c #FCE060",
"r. c #FCE262",
"t. c #FDE363",
"y. c #FEE362",
"u. c #FEE462",
"i. c #FFE563",
"p. c #FAE264",
"a. c #FDE565",
"s. c #FEE867",
"d. c #FFE967",
"f. c #FFEA67",
"g. c #FFED69",
"h. c #FFED6A",
"j. c #FFEF6C",
"k. c #FFF36F",
/* pixels */
"            Z Z b               ",
"        J J J Q R R J b         ",
"      J Q >.| >.| _ Q R b       ",
"    J Q Q u 5.e 3 4.$.Q Q l     ",
"  Z Q | 3.@ * o f q.=.| Q Q q   ",
"  J Q | y.n . p h.p.q.=.| ' k   ",
"Z J | 3.=.H & F k.d.q.3.| _ Z   ",
"Z R | 3.#.+ X : f 6.a.q.| ] J 8 ",
"Z R ' =.q.7.$ : $ o w a.| ] J 8 ",
"  R ] $.q.d.: F k.F M 5.| _ x , ",
"  J ' | =.t.* g g.d.a.o.' _ s   ",
"  b R ' ] y.& 4 i e g | _ J 6   ",
"    c _ Q | t < 2 < t ] Q 9     ",
"      h _ _ ,.<.<.<.>.Z 9       ",
"        9 k b J Z x s 6         ",
"              8 , >             "
};
