/* XPM */
static char *_35e86872d0e4951d0a84149c9bc448aDcZbBLvU9PqxvGyj[] = {
/* columns rows colors chars-per-pixel */
"64 64 153 2 ",
"   c None",
".  c #574D19",
"X  c #5A4F1B",
"o  c #5D521C",
"O  c #62561E",
"+  c #65591F",
"@  c #6A5E21",
"#  c #6E6123",
"$  c #726525",
"%  c #766826",
"&  c #786926",
"*  c #7C6E29",
"=  c #7E7029",
"-  c #84752C",
";  c #8B7A2D",
":  c #8B7C30",
">  c #948434",
",  c #9A8A37",
"<  c #9E8E3A",
"1  c #B6952C",
"2  c #B8972D",
"3  c #BA992F",
"4  c #A4923A",
"5  c #AA963C",
"6  c #AD9A3D",
"7  c #BC9B30",
"8  c #B19D3E",
"9  c #C09E32",
"0  c #C4A335",
"q  c #C8A737",
"w  c #CCAA39",
"e  c #D0AF3D",
"r  c #D3B23E",
"t  c #B29F42",
"y  c #B3A445",
"u  c #BAA543",
"i  c #BFAA47",
"p  c #C2AC47",
"a  c #C2AE49",
"s  c #CBB144",
"d  c #C5B44E",
"f  c #C9B44B",
"g  c #D6B540",
"h  c #D8B741",
"j  c #DBBA44",
"k  c #D1B94C",
"l  c #CFBC52",
"z  c #D4BE50",
"x  c #E0BF47",
"c  c #D6C052",
"v  c #DDC553",
"b  c #DFC855",
"n  c #DECA59",
"m  c #E5C44A",
"M  c #ECCA4E",
"N  c #E4CB56",
"B  c #EFCE51",
"V  c #E1CC58",
"C  c #F0CF51",
"Z  c #EED155",
"A  c #E6D05A",
"S  c #EDD45B",
"D  c #F1D254",
"F  c #F4D658",
"G  c #F7DC5E",
"H  c #F6DA5C",
"J  c #F8DB5C",
"K  c #F9DD5C",
"L  c #F8DC5D",
"P  c #F9DD5D",
"I  c #FBDE5D",
"U  c #F8DD5E",
"Y  c #F8DD5F",
"T  c #F9DE5E",
"R  c #F8DE5F",
"E  c #F9DE5F",
"W  c #FBDE5E",
"Q  c #FBDF5F",
"!  c #F8DE5F",
"~  c #FBE05F",
"^  c #FDE05E",
"/  c #FEE05E",
"(  c #E7D560",
")  c #EDD860",
"_  c #F5DD61",
"`  c #F8DE60",
"'  c #F8DF60",
"]  c #F8DF61",
"[  c #F9DF61",
"{  c #F8DF60",
"}  c #F8E061",
"|  c #F9E061",
" . c #FAE161",
".. c #FBE161",
"X. c #F9E062",
"o. c #F9E162",
"O. c #FAE163",
"+. c #FBE262",
"@. c #FAE263",
"#. c #FBE363",
"$. c #FCE060",
"%. c #FDE260",
"&. c #FFE362",
"*. c #FFE462",
"=. c #FFE663",
"-. c #FAE264",
";. c #FAE364",
":. c #FBE364",
">. c #FAE365",
",. c #FBE365",
"<. c #FBE465",
"1. c #FBE466",
"2. c #FBE566",
"3. c #FDE464",
"4. c #FDE565",
"5. c #FFE764",
"6. c #FCE566",
"7. c #FCE567",
"8. c #FDE666",
"9. c #FCE667",
"0. c #FDE767",
"q. c #FEE666",
"w. c #FEE767",
"e. c #FFE767",
"r. c #FBE263",
"t. c #FFE866",
"y. c #FEE867",
"u. c #FFE867",
"i. c #FFE967",
"p. c #FFEB66",
"a. c #FFE967",
"s. c #FCE668",
"d. c #FDE768",
"f. c #FDE769",
"g. c #FDE768",
"h. c #FDE869",
"j. c #FEE868",
"k. c #FFE868",
"l. c #FFE968",
"z. c #FEE869",
"x. c #FEE969",
"c. c #FFEA68",
"v. c #FFEB69",
"b. c #FEE96A",
"n. c #FEE96B",
"m. c #FFEA6A",
"M. c #FFEB6A",
"N. c #FEEA6B",
"B. c #FFEF6B",
"V. c #FFEC6C",
"C. c #FEEA6A",
"Z. c #FFF46E",
"A. c #FFF16F",
/* pixels */
"                                                                                                                                ",
"                                                                                                                                ",
"                                              B M B C B M D B C B B B B B C B                                                   ",
"                                        B C B B D C B D D C D C D B D C C B B B C C                                             ",
"                                    B B B C C B C C D D D D D D D D D D D C D B C M D M                                         ",
"                                B B C C D Z D D D D D D D D D D D Z D D D C D D C B D B C M                                     ",
"                              B B B C B C D D D D D D D D D D D D D D D D D D D Z D D B D B B M                                 ",
"                          B B C D B D D D D D D D D D F D D F D D D F D D D D D D D D D D C C C M                               ",
"                        B B D C D D D D D F F D D F D F F F F F F F F D F F D D D D F D D D B B C M                             ",
"                      B C C B D D D D D D F D F F F F F F F F F F F F F F F F F F D D D D D D D C D B                           ",
"                    C B B D D D D D D F F F F F F F F G F F F H F F F F F F F F F D F D D D D D D C C B                         ",
"                  B C D B D D D D D F F F F F F F F F F H G F H &.K F G F H F F F F F F F F D D D D D C C                       ",
"                B B B D D D D D F F F F F F F H K H H H F G K H 8 Z [ J F H F H F F F F F D D D D D D C D M                     ",
"              B B Z D D D D D F F F F F F K ^ F G H H G G G ^ , . - N K H J H H F J H F F F F D D D D D B D m                   ",
"              C C C D D D D F F F F H F &.N > f ` G G G G *.5 o @ X = D K H H H J H H F F F F F D D D D B C D h                 ",
"            C B C D D D F D F F F F H F 8 @ . * F K G ` *.y o O o O 8 S ` G G G H H H H F F F F D D D D D C D B w               ",
"          B C D B F D D F D F F F H H K : X + o 8 ^ ` u.p o + + o 5 H S ~ G X.G G G G F J F F D F D D D D D B D m               ",
"          B C B D D D F F F F H H H H ..v @ O O # N u.f + O + o 4 S H } X.X.G G G G G G F G F S F F F F D D D M D w             ",
"        B C D C D D D F F F F F H H H H &.4 X @ o 4 c @ O + o > Z H X.X.X.~ X.G G G G G G G H H F F D F D D D D D m 3           ",
"        B C C D D D F D F F H H H H ` ` [ S $ O O @ @ o + o ; Z G ..;.X.X.} X.X.~ X.` K G F H H F F F D D D D D C C w           ",
"      B B B D D D F F F F F H H G G ` G ` 5.i o + O + @ o - N _ ;...;.X.X...X.X.` ~ ` G G G H H G F F F D F D D C D j 2         ",
"      B C D D D D F F F H H H ` G G G ` ` &.` - o + + O * N ` :.2.2.2.2.-.-.;.X.X.X.X.G G G H H G F F F F D D D D D M 9         ",
"      B C B D D D F F F F H H H G G ` X.X...u.z O O O o u ..:.2.2.2.2.2.2...;.X.X.X.X.~ ~ G G J F F F F F D D D D B D e 1       ",
"    B B C D D D D F F F H H H G G ` ` X.X...:.u., o @ o u 5.s.5.5.2.2.2.2.2.2.;.;.X.X._ G G G G G F G F D F D D D B D j 1       ",
"    B C C D D D F D F F H H H G ` G ..X.:.:.:.5.A # O o u x.x.f.s.s.s.s.2.s.:.:.-.-.X.X.` G G G G F J F F D F D D C D m 3       ",
"    B C C D D D F F F F H G G G G X.X.X...2.2.2.x.> o o u x.x.f.f.f.f.s.2.5.s.:.:.-.X.X.X.` G G G J F F F F D D D D C B 0 2     ",
"    C C B D D D F F F K H H G ` X.X.X...x.x.x.5.N.> o o u x.h.h.x.s.x.s.s.2.2.:.:.-.:.` X.X.G G J F F F F F F D D D B C q 1     ",
"    B C D D F D F F F H H H G K G X.2.S 5 d S x.Z., o o u x.N.N.x.N.h.h.s.s.s.2.2.-.-.X.X.G G G G G J F F F D D D C D C e 1     ",
"    B D Z D D F F F H H H K G ` X.X.5.S @ . # ; y - o o i A.V.N.N.N.N.h.f.f.2.2.:...:...X.X.~ G G G F F F F D F D D B D g 1     ",
"    B B C D D F F F F H H H G ` ~ ~ 2.S # o O o X @ @ o , n s.Z.Z.V.N.s.x.s.s.5.2.:.:.:.X.X._ G J F F J F F F D D D C D h 1     ",
"    B D D D D F D F F F H H ` K _ X.2.S # o o O O @ @ O o + = < d ( N.Z.A.V.s.2.2.2.;.X.X.~ ~ G G J G F F F F D D C C D h 1     ",
"    B D C D D D F F H H H ` G ` ~ X.X.X.n u > & O O o @ O + o o o @ - 5 l S x.N.x.2.;.X.X._ G G J G G F F F F D D D D D j 2 1   ",
"    B D D D D F F F F H H G ` K X.X.X.X.2.5...S c = o @ o X o @ @ o o o o # : t c _ 2.....X.X.G G G F F H D H D D D C D r 2 2   ",
"    C M D D D F F F H H H H G ` G X.X.-.:.2.2.2.N.> o O 4 t - @ o o o O @ o o o o & n @.X.X.G G G F F J D H D D D Z C D r 3 2   ",
"    C D C D D F D F H H H H G K X.X.X.:.:.:.:.s.N.> o o i x.` V a < * @ o o o @ o O k ..X.X.G G G F G F H D H D D D Z D e 1 1   ",
"    C M D D D D F F F F H G G G G ~ ` :.:.:.2.2.A.> o o u u.N.x.x.f.H v y > # @ o o k ..X.G G G G J G F H D D D D D C C q 1     ",
"    C C C D D D D F F F H G G G G X.X.X...;.2.2.N.> o o u f.f.x.x.s.s.5.5.` S k 5 ; k ~ X.G G G G H H D D H D D D D D M 0 1     ",
"    M C B D D D F F F F F H G G ` ` X.X.X.-.2.:.p.> o o u 5.f.f.s.s.s.s.f.:.:.5.@.H S ~ X.~ G G H H H H H D H D D C D M 3 1     ",
"    C D C D D F D F F F G H H G G X.~ X.X.2...2.N.> o o u 5.s.5.s.s.1.s.1.:.1.:.@..._ X.G G G G F H H H D D D D C C D j 1 1     ",
"      M Z D D D D F F F F H F G G G G ` ....@.@.p.> o o u 2.5.2.2.2.s.1.:.:.:.:.X.X.X.~ X.G G F G H D D D F D D D D D w 1 1     ",
"      C C D D D D F F F F H G G G G X.~ X.X.X.;.u.> o o u @.2.2.2.2.:.:.X.-.X.-.X.X.G ~ G G H H F F F F F D D D C C M 9 2 1     ",
"      B C C C D D F F F F F F H G G G G G X.X.X.u.> o o u @.2.:.:.:.:.:.X.` X.X.X.X.G G G G H H J F F D F D D C C D j 1 1       ",
"        B C B D D D D F F H F J H G G G ~ } X.X.*.> o o u ~ @.2.:.:.:.:.X.X...` } } G G G J F H F F F F D D D D C D q 1 2       ",
"        M C C D D D D F F F F G H H H G G G G ~ u.> o o u ~ @...-.X.X.` X.X.` ` _ G G G G G F H F F F D D D D C D m 2 2 1       ",
"          B C D D D D D F F F F H H G H G G G _ *.> o o u ~ ..X.` ` X.` ` X.K ..G G J G F J H D F F F D D D C C D w 1 2         ",
"          M C C D D D D F F F F F H H H G G G G ^ > o o u *.@.*...:.&.2.........~ ~ K F H H H H F F F D D D C D m 2 1 1         ",
"            B B B D D D D F D F F H H H H G G G ^ > o O 5 N N N N N N N N N N N N N S J H H F D F D D D D C C C 0 1 1           ",
"              C D D D D D D S H D F F H H H H H ^ > o + + @ # + @ # @ @ @ @ @ @ @ O p K F D D H D D D D C D D h 1 1 1           ",
"              M B B C D D D D D F F F F F J J F ^ ; X O o o o o o o o o o o o o o . q F F F F F D D D D C D m 3 1 1             ",
"                M D D C D D D D F F F F F F F J I 6 - ; ; ; ; ; ; ; ; ; ; ; ; ; ; - s F F F D D D D D D D M 9 2 1               ",
"                  M D D D D D D F D F F F F F F J F D D Z Z D D Z Z D D Z Z Z D Z B M D D D D D D D D D C q 1 1 2               ",
"                    M D Z D D D D D D D F F F F F F F D H H H F F F F F F F D F F F F D F D D C D C D M w 1 1 2                 ",
"                      M D B D D D D D D D F D F H D D F F F D F F F F F F F F F D D F D D D D D B D B w 1 1 2                   ",
"                        m D B B D C D D D F D D D F H D H H H D H F F D D F D F F D D Z D D B C D M 0 1 1 1                     ",
"                          x D C C D C D D D D D F D D D D D F H D F D D D D D D D D D D D B C D m 9 1 1 1                       ",
"                            r M D D B D D D D D D D D H D D D D D F D D D D D D D D D C B D B r 2 1 1 1                         ",
"                              0 h C D D C D D D C D D D D D D D D D D D D C D D D C C D D x 0 1 1 1 1                           ",
"                                7 0 j C D D C D C D C D B D D C D D D D B D B B C D B x q 1 1 2 1                               ",
"                                    2 0 r m D D D C C C B D C D D B D B D D D D M h 0 2 1 1 1 1                                 ",
"                                        2 3 0 r m M B C D C D D D D B B M m r 0 7 1 1 2 1 1                                     ",
"                                            1 1 1 3 0 0 w r r r r w q 0 9 1 1 1 1 1 1 1                                         ",
"                                                  1 1 1 1 1 1 1 1 1 1 2 1 1 1 1 1                                               ",
"                                                                2 1                                                             ",
"                                                                                                                                "
};
