/* XPM */
static char *_2ffe453b05a426bde25e68527175ade4uSmdil1cGj1RuzK[] = {
/* columns rows colors chars-per-pixel */
"32 32 130 2 ",
"   c None",
".  c #544917",
"X  c #554B18",
"o  c #594E19",
"O  c #5C511B",
"+  c #62561D",
"@  c #65581E",
"#  c #736524",
"$  c #766826",
"%  c #7B6D2A",
"&  c #7F712B",
"*  c #84752D",
"=  c #8B7B2F",
"-  c #948332",
";  c #9D8A36",
":  c #9F8E38",
">  c #9F903C",
",  c #B3922A",
"<  c #BA992F",
"1  c #A18F38",
"2  c #A5923B",
"3  c #A8963D",
"4  c #AC9A3F",
"5  c #BD9C30",
"6  c #C19F33",
"7  c #C5A436",
"8  c #C8A737",
"9  c #CDAB3A",
"0  c #D0AF3C",
"q  c #D2B13E",
"w  c #B6A243",
"e  c #C3AD46",
"r  c #C4AF49",
"t  c #C6B24C",
"y  c #CAB54D",
"u  c #D7B641",
"i  c #DFBE46",
"p  c #D5BC4D",
"a  c #CCB950",
"s  c #D4BE51",
"d  c #D6C152",
"f  c #DBC453",
"g  c #E3C249",
"h  c #E8C74C",
"j  c #EBCA4E",
"k  c #E5CA53",
"l  c #EFCE51",
"z  c #E7CF59",
"x  c #F0CF51",
"c  c #EED156",
"v  c #EAD35B",
"b  c #F2D355",
"n  c #F4D658",
"m  c #F6DA5C",
"M  c #F8DC5C",
"N  c #FBDE5C",
"B  c #FBDE5D",
"V  c #F8DD5F",
"C  c #F9DE5E",
"Z  c #F8DE5F",
"A  c #FCDF5E",
"S  c #F8DA59",
"D  c #F4DC60",
"F  c #F4DD61",
"G  c #F8DE60",
"H  c #F8DF60",
"J  c #F9DF60",
"K  c #F8DF61",
"L  c #F9DF61",
"P  c #F7E263",
"I  c #F4E064",
"U  c #F7E466",
"Y  c #F9E061",
"T  c #FAE061",
"R  c #F8E062",
"E  c #F9E062",
"W  c #F9E162",
"Q  c #F9E163",
"!  c #FAE162",
"~  c #FBE162",
"^  c #FAE163",
"/  c #FBE262",
"(  c #FAE263",
")  c #FCE160",
"_  c #FEE260",
"`  c #FCE262",
"'  c #FCE363",
"]  c #FFE461",
"[  c #FDE463",
"{  c #FEE462",
"}  c #FFE462",
"|  c #FFE563",
" . c #FAE264",
".. c #FAE364",
"X. c #FBE364",
"o. c #FBE465",
"O. c #FCE464",
"+. c #FDE464",
"@. c #FCE465",
"#. c #FFE664",
"$. c #FFE764",
"%. c #FFE765",
"&. c #FCE566",
"*. c #FCE567",
"=. c #FCE667",
"-. c #FDE667",
";. c #FEE666",
":. c #FFE766",
">. c #FFE866",
",. c #FFED67",
"<. c #FCE668",
"1. c #FDE768",
"2. c #FDE769",
"3. c #FFE968",
"4. c #FFEA68",
"5. c #FFEB69",
"6. c #FEE96A",
"7. c #FFEA6A",
"8. c #FFEB6A",
"9. c #FFEC69",
"0. c #FFEC6A",
"q. c #FFED6A",
"w. c #FFEC6B",
"e. c #FFED6B",
"r. c #FFEF6B",
"t. c #FBEB6C",
"y. c #FFEF6E",
"u. c #FFF06D",
"i. c #FFF16E",
"p. c #FFF26F",
/* pixels */
"                                                                ",
"                      l l x l l b j x x                         ",
"                  c x l b x b b b b b l l l j                   ",
"              l x x b c b n b b b n b b b b b j                 ",
"            l b c b b n n n n n n n n n n b c b x               ",
"          x x b b n n S n n n M V n n n n n n b b b             ",
"        l x b b S S C V M m ` d 1 c M n n n n n b x x           ",
"      l b b b n n n w - n [ z # X e _ M n n n n b b b h         ",
"      b c b n n m V = . e D & X 2 m G G M m m n n b b b u       ",
"    j c b n n n m ` f + $ * . ; G @.Y Y G V m m n n b b j 5     ",
"    b b b n m m V C >.3 o O - D +.+.X.Y G G m m n n n b b 0     ",
"  l x b n n m m M F o.m $ O d r.2.+.+.o.Y G G M m n b b b g     ",
"  x b b n n m M Y Y <.u.w O d t.6.<.o.o.X.G Y V M n n b b j 5   ",
"  l b b n n m M Y F f U a O f u.6.2.2.o.+.Y G F m n n b b x 7   ",
"  x b b n n M V ` v @ # & O t t.p.p.6.2.X.Y Y F M n n n b b 8   ",
"  x b b n n M F Y F 2 # + @ @ % > t v 6.r.+.Y G M m n b b b 8   ",
"  b b b n n M M G o.>.I w + * # o . + & 4 m P M M m n b c b 7   ",
"  j b b n m m F Y Y o.e.t o f I d 4 * @ O f ' M m n n n b b 7   ",
"  x b b n n m M G Y X.6.t O d u.e.r.2.z r c Y V m m n b b j <   ",
"  l c c n n m M F G X.7.t O s r.<.+.2.+.>.Y V V m n n c b g ,   ",
"    x b b n n M V V G >.t O s 6.o.o.Y Y Y P V n n n n b n q ,   ",
"    j b b n n n m V C +.r O p +.X.Y Y Y F M V n n n b b j <     ",
"      b b b n n n M V [ e O d 6.+.>.+.[ [ M n n n b b b u ,     ",
"      j b b n n n n M ` e o - 3 2 2 2 2 2 k M n b b b h < ,     ",
"        x b b b n n n A y $ $ # # # # # # p M b b b x 8 ,       ",
"          x b b b n n n n b c b l c l b j b b b b b 0 ,         ",
"            j b b b b b n S n n n n n n n b b b x 0 ,           ",
"              h b b b b b b b b n n b b b b b h 7 ,             ",
"                q j b b b b b b b b b b n j q < ,               ",
"                  < 9 i h j x b x l h i 9 < ,                   ",
"                        < 6 7 7 7 7 < , ,                       ",
"                                                                "
};
